# xmcd
#
# Track frame offsets:
#	150
#	8970
#	27760
#	48350
#	65310
#	85213
#	114743
#	118068
#	147065
#	156393
#	177635
#	200780
#	227975
#	252428
#
# Disc length: 3505 seconds
#
# Revision: 1
# Processed by: cddbd v1.4PL0 Copyright (c) Steve Scherf et al.
# Submitted via: audiograbber 1.80.04
#
DISCID=c90daf0e
DTITLE=Erykah Badu - Baduizm
DYEAR=1900
DGENRE=
TTITLE0=Rimshot (Intro)
TTITLE1=On and On
TTITLE2=Appletree
TTITLE3=Otherside Of The Game
TTITLE4=Sometimes (Mix #9)
TTITLE5=Next Lifetime
TTITLE6=Afro (Freestyle Skit)
TTITLE7=Certainly
TTITLE8=4 Leaf Clover
TTITLE9=No Love
TTITLE10=Drama
TTITLE11=Sometimes...
TTITLE12=Certainly (Flipped It)
TTITLE13=Rimshot (Outro)
EXTD=
EXTT0=
EXTT1=
EXTT2=
EXTT3=
EXTT4=
EXTT5=
EXTT6=
EXTT7=
EXTT8=
EXTT9=
EXTT10=
EXTT11=
EXTT12=
EXTT13=
PLAYORDER=
